M48
;FILE_FORMAT=4:2
METRIC,0000.00
;TYPE=PLATED
T01C0.20
T03C1.00
T04C1.40
T05C2.70
T06C3.20
;TYPE=NON_PLATED
T02C0.50
%
T01
X+032575Y+008500
X+033200
X+032825
X+033100Y+010775
X+033263
X+033425
X+033263Y+011125
X+033100Y+011475
X+033263
X+033425
X+033125Y+011900
X+033288
X+033450
Y+012600
X+033288
X+033125
X+033288Y+012250
X+033363Y+012688
X+033125Y+012250
X+033200Y+012738
X+033450Y+012250
X+033125Y+013400
X+033288
X+033450
X+033375Y+013313
X+033213Y+013263
X+033450Y+014100
X+033288
X+033125
X+033213Y+014338
X+033385Y+015175
X+033255
X+033125Y+015838
X+033255Y+016175
X+033125Y+016163
X+033255Y+017275
X+033925Y+008213
Y+009013
Y+008813
Y+008613
Y+009813
Y+009613
Y+009413
Y+009213
Y+010413
Y+010213
Y+010013
X+033955Y+011050
X+033695
X+033825
X+034155Y+011125
X+033750Y+010763
X+033613Y+011900
X+033775
X+033675Y+011813
X+033900Y+011900
X+034093Y+012425
X+033613Y+012600
X+033775
X+033938
X+033613Y+012250
Y+013400
X+033775
X+033938
X+034188Y+013000
Y+013075
X+034093Y+013925
X+033938Y+014100
X+033775
X+033613
X+033863Y+014238
X+033700Y+014188
X+033580Y+014825
X+033713Y+014550
X+033645Y+015613
X+033625Y+016513
X+033645Y+017738
X+033988Y+018088
Y+017763
X+034188Y+017588
X+033813Y+019700
Y+020300
Y+020100
Y+019900
X+034545Y+010575
X+034563Y+010225
X+034750Y+010550
X+034863
X+034413Y+010150
X+034350Y+011375
X+034875
X+035000
X+034415Y+011125
X+034480Y+011375
X+034415Y+010800
X+034680Y+011125
X+034810Y+010800
X+034940
X+034810Y+011125
X+034940
X+034483Y+012075
X+034450Y+013338
Y+013013
X+034734Y+013144
X+034963Y+013374
X+034700Y+014188
X+034613Y+015588
Y+015738
Y+015888
X+034601Y+016400
X+034728
X+034925Y+016650
Y+016488
X+034888Y+016238
X+034825Y+016275
X+034925Y+016350
Y+016413
X+034475Y+016188
X+034800
X+034474Y+017075
X+034825Y+016975
Y+017075
X+034950Y+017113
X+034900Y+017150
X+035000Y+018650
X+034675Y+019450
X+035623Y+012735
X+035113Y+013500
X+035213Y+013400
Y+013500
X+035713Y+013800
X+035413Y+014000
Y+013900
X+035713Y+014400
Y+014300
X+035513Y+014400
X+035613
X+035413Y+014200
Y+014400
X+035613Y+013900
Y+014000
Y+014100
X+035513Y+014600
X+035713Y+014700
X+035513
X+035413Y+014600
Y+014800
X+035713Y+015200
Y+015100
X+035513
Y+015000
X+035613
Y+014900
X+035713Y+015000
Y+014800
Y+014900
X+035113Y+015500
X+035213
Y+015600
X+035563Y+015700
X+035513Y+015738
X+035463Y+015788
X+035313Y+015938
X+035363Y+015888
X+035750Y+016413
X+035338Y+016450
X+035138Y+016650
X+035538
Y+016250
X+035138
X+035425Y+016925
X+035375Y+017225
X+035638Y+017713
X+036375Y+013138
X+036013Y+013600
X+035913Y+013063
X+035963Y+013025
X+036413Y+013600
X+036513
X+036063Y+013375
X+036513Y+014300
X+036413Y+014200
X+036513
X+036313Y+014400
X+035913Y+014200
X+036113Y+014400
X+035913Y+014300
X+036213Y+014400
X+036013Y+013800
X+036113Y+013900
Y+014200
X+036313
X+036513Y+014400
X+035913Y+014000
Y+014400
X+036413
Y+014300
X+036313
X+036213
X+036113
X+036013
Y+014400
Y+014000
X+036513
X+036313Y+013800
X+036213
X+036113Y+014000
X+036413
X+036513Y+014100
X+036313Y+014600
X+036113
X+036413Y+015200
X+036113
X+036213Y+014600
X+036513
X+036413Y+014800
X+036313
X+036113Y+015000
Y+014800
X+036213
X+035913Y+014700
Y+014600
X+036113Y+014900
X+036213
X+036013Y+014700
X+036113
X+036213
X+036313
X+036413
Y+014600
X+036013
Y+015000
X+036313Y+015200
Y+015100
X+036413
X+036313Y+015000
X+036413
X+036313Y+015300
X+035913
X+036213
X+036526Y+015908
X+036313Y+015400
X+036413Y+015500
X+036213Y+015813
X+036138
X+036188Y+015963
X+036263
X+036288Y+016700
X+036463Y+017288
X+036800Y+012775
X+036913Y+012675
X+037213Y+013400
Y+013500
X+036713Y+013600
X+037013
X+037075Y+013225
X+037113Y+013600
X+037213Y+013088
X+036813Y+014000
X+036913
X+036713Y+013900
Y+014300
X+036913
X+037013Y+014400
Y+014100
X+036913Y+014400
Y+014100
X+036713Y+014000
Y+014200
X+036813Y+013800
Y+014600
X+036913
Y+015000
X+036813
Y+015100
X+036913Y+015200
X+037013Y+014800
X+036713Y+014600
Y+014700
Y+014900
X+036813
X+036713Y+015000
Y+015100
Y+015200
X+037213Y+015500
X+036713Y+015300
X+037213Y+015600
X+037013Y+015400
X+036774Y+016367
X+036880Y+016261
X+037038Y+016425
X+037013Y+016650
X+036788Y+017288
X+037113
X+037213Y+017013
X+037013Y+017125
X+037800Y+013388
Y+013550
X+037475Y+013388
Y+013550
Y+016425
X+037525Y+016713
X+037438Y+017288
X+037425Y+017163
X+037413Y+016863
X+038775Y+010435
X+038725Y+010475
X+038705Y+011150
X+038813Y+012083
X+038380Y+011713
X+038363Y+012075
X+038538
X+038813Y+013333
X+038575Y+015625
X+038713Y+016588
X+038388
X+038813Y+016890
X+038713
Y+016810
X+038388Y+016850
X+038625Y+018200
X+038200Y+018100
X+038275
X+038200Y+017650
X+038275
X+038263Y+018463
X+039363Y+009650
X+039200Y+010475
X+039363Y+010900
X+038913Y+011263
Y+010938
X+039363Y+012150
X+039013Y+012083
Y+012003
Y+011923
X+038913
X+039338Y+011963
X+039363Y+013400
X+039338Y+013213
X+039013Y+013333
Y+013253
Y+013173
X+038913
X+039103Y+013988
X+039023
X+038943
X+039063Y+014313
X+039103Y+013888
X+039023Y+013838
X+038943Y+013800
X+039103Y+014638
X+039023
X+039103Y+014738
X+039023Y+014788
X+039363Y+014650
X+039550Y+015955
X+039000Y+015585
X+039038Y+015505
X+039075Y+016643
X+039288Y+016588
X+039550Y+016880
Y+017805
Y+018195
X+038950Y+018078
Y+018158
X+039088
X+039125Y+018078
X+039050Y+018238
X+038950
X+039550Y+018730
Y+019120
Y+019655
Y+020045
Y+019915
X+039525Y+020338
Y+020513
X+039675Y+009288
Y+010525
Y+011775
Y+013025
Y+014275
Y+015525
X+039838Y+016400
X+040113Y+016488
X+039763Y+017400
X+040100
X+040288Y+017935
X+040225Y+017805
X+039763Y+018338
X+040225Y+018538
X+040288
X+040100Y+018338
X+039763Y+019263
X+040100
X+039763Y+020188
X+039900Y+019980
X+040100Y+020188
X+040225Y+020338
Y+020513
X+040913Y+009288
X+040825Y+009438
X+040725Y+010400
X+040913Y+010525
X+040825Y+010588
X+040663Y+010775
X+040600Y+010825
X+040538Y+010875
X+040475Y+010925
X+040725Y+011650
X+040913Y+011775
X+040825Y+011925
X+040725Y+012900
X+040663Y+013250
X+040600Y+013313
X+040913Y+013025
X+040825Y+013175
X+040725Y+014150
X+040913Y+014275
X+040825Y+014425
X+040663Y+014775
X+040600Y+015150
X+040725Y+015400
X+040913Y+015525
X+040825Y+015675
X+040725Y+016575
X+040538Y+016988
X+040475Y+016925
X+040725Y+017140
X+040663Y+018550
X+040600Y+018613
X+041088Y+020088
X+040650
X+040725
X+040575
X+041325Y+009050
X+041650Y+008950
X+041738
X+041825
X+041325Y+009350
Y+009650
Y+009950
Y+010250
Y+010550
X+041650Y+010450
X+041738
X+041825
X+041325Y+010850
Y+011150
X+041650Y+011350
X+041738
X+041825
X+041325Y+011750
Y+012050
X+041650Y+011550
X+041825
X+041738
X+041325Y+012350
X+041490Y+012838
X+041570Y+012788
X+041200Y+013375
X+041410
X+041570Y+013000
X+041490
X+041625Y+013250
Y+013313
X+041325Y+013900
Y+014100
X+041255Y+014425
X+041495
X+041415
X+041335
X+041650Y+015950
X+041738
X+041825
X+041650Y+016150
X+041825
X+041738
X+041500Y+016050
X+041238Y+020088
X+042088Y+008950
X+042150Y+008450
Y+008750
X+042000Y+008950
X+042088Y+010450
X+042000
X+042088Y+011350
X+042000
X+042088Y+011550
X+042000
X+042088Y+012850
X+042000
X+042013Y+013513
X+042088
X+042050Y+013550
X+042013Y+013588
X+042088
Y+013050
X+042000
X+042088Y+015950
X+042000
X+042013Y+015525
X+042088
X+042050Y+015563
X+042013Y+015600
X+042088
Y+016150
X+042138Y+016700
Y+016475
X+042000Y+016150
X+042013Y+016313
X+042088
X+042050Y+016350
X+042013Y+016388
X+042088
X+042138Y+016900
Y+017200
Y+018150
Y+017850
Y+018450
Y+018750
Y+019350
X+042000Y+020513
X+042075
Y+019900
Y+020000
X+041988Y+019900
Y+020000
X+033288Y+013750
X+033450
X+033255Y+018313
X+033925Y+008413
X+033630Y+011400
X+034013Y+010688
X+033775Y+013750
X+033938
X+034188Y+012925
X+034796Y+012994
X+034700Y+016738
X+034375
X+034613Y+016038
X+034925Y+016750
X+035313Y+013700
X+035288Y+016038
X+036513Y+013700
X+036313Y+014500
X+036113
X+036213
X+036313Y+013700
X+036213
X+035913Y+014500
X+036413
X+036013
X+036420Y+016014
X+036813Y+013700
X+037013Y+014500
X+036650Y+016031
X+038775Y+009885
X+038725Y+009925
X+038713Y+016730
X+039363Y+008413
X+039200Y+009925
X+039550Y+019785
X+040138Y+016800
X+040725Y+009163
X+040825Y+010675
X+040650Y+020538
X+040575
X+040725
X+041088
X+041650Y+009150
X+041825
X+041738
X+041325Y+011450
X+041650Y+010650
X+041825
X+041738
X+041300Y+010675
X+041570Y+013713
X+041490
X+041410
X+041330
X+041238Y+020538
X+042088Y+009150
X+042000
X+042088Y+010650
X+042000
Y+017550
X+042138Y+019050
X+042038Y+020550
X+042000Y+020588
X+042075
X+033525Y+011125
Y+011763
X+033513Y+013000
Y+013075
X+033538Y+014550
X+033500Y+016575
X+034315Y+010500
X+035070Y+010575
X+035050Y+010225
X+034285Y+011125
Y+010800
X+035838Y+012138
X+036613Y+013600
X+036575Y+013000
X+035026Y+013224
X+036613Y+013800
X+035813
X+036613Y+014200
X+035813Y+014300
Y+014200
Y+014100
X+036613
X+035813Y+015200
X+036613Y+014600
X+035813Y+014700
Y+014600
X+036613Y+014700
X+036544Y+016138
X+035038Y+017275
X+034263Y+017175
X+035800Y+017313
X+039613Y+009650
X+038875Y+010515
Y+010435
Y+009965
X+039613Y+010900
Y+012150
X+038863Y+012003
X+039613Y+013400
X+037313Y+013500
X+038863Y+013253
X+039613Y+014650
X+037313Y+015500
X+038900Y+015505
Y+015585
X+038850Y+016810
X+037338Y+017013
X+038125Y+018100
Y+017650
X+041913Y+008950
Y+010450
Y+011350
Y+011550
Y+012850
Y+013050
X+041150Y+013250
Y+013313
X+041913Y+015950
Y+016150
X+040350Y+018065
Y+018538
X+040413
Y+018438
X+041163Y+020088
X+033513Y+012925
X+035813Y+014500
X+035852Y+012965
X+036563Y+012938
X+035813Y+013700
X+039613Y+008413
X+038875Y+009885
X+041913Y+009150
Y+010650
X+041163Y+020538
T02
X+037739Y+008738
X+038115Y+008738
T03
X+030825Y+008500
X+031075
X+034538Y+018294
Y+018040
Y+018548
Y+019056
Y+018802
Y+019310
X+036340Y+012134
Y+011880
Y+012896
Y+012642
Y+012388
X+036086Y+012134
Y+011880
Y+012896
Y+012642
Y+012388
Y+009303
Y+009049
Y+010065
Y+009811
Y+010827
Y+010573
X+036340Y+009303
Y+009049
Y+010065
Y+009811
Y+010827
Y+010573
X+036086Y+009557
Y+008795
Y+011081
Y+010319
X+036340Y+009557
Y+008795
Y+011081
Y+010319
X+030575Y+008500
X+034411Y+017742
Y+017488
X+034665Y+017742
Y+017488
X+034411Y+017234
X+034665
X+032800Y+011625
Y+011375
Y+011125
Y+012375
Y+012125
Y+011875
Y+013125
Y+012875
Y+012625
Y+013875
Y+013625
Y+013375
Y+014625
Y+014375
Y+015375
Y+015125
Y+016125
Y+015875
Y+016875
Y+016625
Y+017625
Y+017375
Y+018125
Y+010875
Y+014125
Y+017125
Y+016375
Y+015625
Y+014875
Y+017875
X+032550Y+011625
Y+011375
Y+011125
Y+012375
Y+012125
Y+011875
Y+013125
Y+012875
Y+012625
Y+013875
Y+013625
Y+013375
Y+014625
Y+014375
Y+015375
Y+015125
Y+016125
Y+015875
Y+016875
Y+016625
Y+017625
Y+017375
Y+018125
Y+010875
Y+014125
Y+017125
Y+016375
Y+015625
Y+014875
Y+017875
T04
X+038011Y+020628
X+038329
X+038647
X+038965
X+038011Y+018722
X+038965
T05
X+032050Y+010450
Y+018550
T06
X+029700Y+019750
Y+009250
T00
M30
